<?xml version="1.0" standalone="no"?>
<!DOCTYPE svg PUBLIC "-//W3C//DTD SVG 20010904//EN"
 "http://www.w3.org/TR/2001/REC-SVG-20010904/DTD/svg10.dtd">
<svg version="1.0" xmlns="http://www.w3.org/2000/svg"
 width="1428.000000pt" height="1428.000000pt" viewBox="0 0 1428.000000 1428.000000"
 preserveAspectRatio="xMidYMid meet">

<g transform="translate(0.000000,1428.000000) scale(0.100000,-0.100000)"
fill="#000000" stroke="none">
<path d="M9421 13735 c-110 -24 -198 -65 -260 -119 -31 -28 -98 -86 -149 -130
-149 -126 -499 -516 -608 -676 -20 -30 -57 -79 -83 -109 -25 -30 -81 -104
-126 -166 -91 -126 -218 -285 -223 -280 -2 2 11 28 30 57 102 159 151 258 179
363 22 83 18 97 -5 23 -26 -80 -103 -241 -168 -351 -32 -54 -55 -103 -52 -108
3 -5 0 -8 -8 -7 -7 2 -14 -7 -16 -19 -2 -13 -7 -23 -12 -23 -4 0 -22 -24 -38
-52 -17 -29 -50 -75 -74 -101 l-43 -48 -205 9 c-252 11 -500 7 -720 -13 -30
-3 -89 -7 -130 -11 -95 -7 -155 -13 -155 -14 0 -1 -22 -3 -48 -6 -27 -3 -67
-11 -89 -19 -22 -7 -47 -11 -56 -8 -9 4 -13 2 -9 -4 5 -8 -6 -9 -33 -6 -23 3
-40 1 -40 -4 0 -6 -18 -7 -47 -3 -27 5 -52 5 -57 2 -5 -3 -6 0 -2 6 8 13 -49
52 -77 52 -10 0 -34 16 -52 36 -19 20 -39 33 -45 29 -5 -3 -10 -2 -10 4 0 5
-9 13 -20 16 -11 4 -18 10 -15 15 3 5 -11 14 -32 20 -21 5 -45 14 -53 20 -20
13 -4 13 21 0 10 -6 19 -8 19 -6 0 11 -58 35 -65 28 -5 -4 -5 -2 -1 5 4 7 -19
30 -60 59 -157 112 -357 284 -552 475 -329 319 -340 329 -167 134 129 -145
198 -215 302 -306 108 -95 293 -239 307 -239 5 0 6 -3 3 -6 -3 -4 -64 32 -134
78 -533 354 -619 412 -669 454 -23 19 -45 34 -49 34 -4 0 -28 17 -54 39 -55
45 -283 202 -326 223 -39 20 -98 29 -116 17 -26 -16 -18 -260 14 -414 14 -71
31 -161 37 -200 21 -144 59 -334 97 -495 14 -58 27 -117 30 -133 6 -36 88
-297 146 -462 25 -71 48 -148 52 -170 l6 -40 -25 46 c-14 25 -55 113 -91 195
-36 82 -69 156 -74 165 -39 69 -167 460 -212 647 -12 51 -24 91 -26 89 -8 -9
42 -260 96 -482 58 -234 89 -433 76 -474 -4 -13 -2 -21 5 -21 7 0 8 -6 0 -19
-5 -11 -10 -64 -10 -118 0 -54 -4 -115 -9 -135 -9 -38 -50 -96 -116 -162 l-39
-39 -13 64 c-12 59 -21 90 -43 144 -5 11 -14 49 -20 85 -7 36 -19 88 -26 115
-8 28 -19 75 -25 105 -31 155 -74 296 -88 292 -8 -2 -10 4 -6 17 3 10 -1 34
-9 52 -8 19 -27 78 -42 132 -15 54 -34 106 -42 115 -12 15 -13 15 -8 -8 3 -14
22 -97 41 -185 20 -88 44 -198 55 -245 11 -47 21 -104 22 -127 2 -24 6 -43 11
-43 4 0 7 -19 7 -42 0 -40 1 -41 19 -24 27 24 36 4 17 -36 -19 -36 -23 -86 -5
-55 5 9 14 17 19 17 13 0 13 -67 0 -75 -5 -3 -10 -16 -9 -28 l0 -22 9 23 c10
24 29 30 31 10 1 -7 0 -27 -1 -44 -1 -20 4 -33 14 -37 11 -5 15 -17 14 -39 -2
-21 1 -32 9 -31 17 4 8 -75 -11 -96 -9 -10 -16 -35 -16 -57 0 -33 -6 -44 -40
-71 -47 -40 -57 -41 -72 -8 -14 30 -23 32 -25 4 -1 -11 4 -22 12 -25 14 -6 11
-50 -6 -70 -5 -6 -7 -13 -5 -15 2 -2 -17 -4 -44 -5 -34 -1 -47 2 -44 11 3 7
-2 15 -10 18 -9 4 -16 11 -16 16 0 16 -82 143 -120 185 -107 120 -148 164
-174 186 -16 14 -66 61 -110 106 -116 116 -323 261 -343 241 -3 -4 6 -12 21
-18 14 -7 26 -16 26 -20 0 -4 8 -10 19 -14 10 -3 28 -13 40 -23 12 -9 33 -26
47 -37 113 -88 329 -310 396 -407 26 -38 38 -47 57 -45 17 1 29 -5 35 -18 6
-11 21 -35 33 -52 25 -33 29 -53 13 -53 -15 0 -12 -12 17 -76 15 -33 26 -68
24 -79 -3 -17 -56 -95 -123 -178 -35 -44 -118 -180 -118 -195 0 -7 -4 -20 -9
-30 -19 -38 -31 -91 -31 -138 0 -69 35 -135 114 -219 72 -75 69 -67 50 -164
-4 -19 -44 -111 -90 -203 -121 -243 -129 -265 -159 -448 -15 -91 -33 -184 -40
-207 -7 -23 -10 -44 -6 -46 3 -2 1 -3 -5 -1 -17 4 -107 -112 -149 -191 -28
-52 -41 -95 -55 -176 -10 -59 -16 -117 -13 -130 4 -15 3 -20 -5 -15 -6 4 -21
2 -33 -5 -17 -8 -36 -8 -81 1 -32 7 -61 10 -65 7 -12 -13 53 -29 112 -28 33 0
56 -3 50 -7 -5 -4 -10 -37 -11 -74 0 -37 -6 -73 -13 -81 -9 -12 -9 -16 1 -20
7 -3 2 -5 -12 -4 -14 0 -52 0 -85 -2 -47 -2 -55 -4 -37 -11 12 -5 22 -14 22
-19 0 -15 -25 -19 -71 -11 -24 5 -62 7 -84 4 -96 -12 -104 -14 -98 -29 7 -20
87 -20 106 0 8 8 17 12 19 9 10 -10 160 -16 167 -7 3 5 25 8 47 5 37 -3 43 -7
48 -34 3 -17 6 -57 6 -89 0 -56 -1 -59 -27 -65 -53 -11 -84 -27 -75 -36 6 -6
17 -5 30 3 31 20 38 3 11 -25 -17 -18 -31 -23 -46 -19 -15 3 -25 0 -29 -11 -3
-9 -17 -16 -29 -16 -13 0 -27 -4 -30 -10 -3 -5 -19 -10 -36 -10 -16 0 -29 -4
-29 -10 0 -5 8 -10 18 -10 20 0 89 23 98 33 4 4 20 7 36 7 16 0 37 4 46 9 9 4
34 11 55 15 l38 7 30 -66 c17 -36 30 -67 28 -68 -2 -1 -18 -12 -36 -25 -18
-12 -37 -22 -43 -22 -7 0 -9 -8 -5 -21 6 -18 4 -20 -17 -15 -12 3 -17 3 -10 0
18 -8 15 -31 -5 -43 -10 -5 -15 -12 -12 -15 3 -4 24 7 47 24 23 16 44 30 48
30 3 0 12 7 20 15 26 25 49 17 82 -29 18 -24 32 -48 32 -52 0 -14 109 -130
163 -173 56 -45 134 -81 175 -81 13 0 20 -4 17 -10 -4 -6 7 -10 27 -10 48 0
85 -35 109 -105 33 -97 76 -168 142 -236 77 -81 126 -116 288 -205 49 -28 164
-64 201 -64 16 0 41 -6 57 -14 15 -8 56 -17 92 -21 35 -3 75 -8 87 -11 13 -3
21 -1 19 3 -3 4 41 9 96 10 56 1 154 4 217 8 88 5 119 3 131 -7 44 -35 71
-202 55 -328 -15 -108 -30 -144 -119 -279 -53 -81 -147 -257 -147 -276 0 -2
-16 -38 -35 -80 -19 -41 -44 -101 -55 -133 -47 -136 -98 -256 -102 -242 -3 8
-3 2 -1 -13 3 -15 1 -33 -4 -40 -5 -7 -20 -45 -33 -85 -18 -55 -26 -69 -31
-55 -4 10 -8 13 -8 6 -1 -6 -4 -19 -8 -29 -5 -13 -3 -15 7 -9 10 6 12 4 6 -11
-4 -10 -10 -31 -13 -47 -3 -15 -10 -30 -14 -33 -5 -3 -9 -15 -9 -27 0 -17 -2
-19 -10 -7 -6 10 -9 6 -8 -15 0 -17 -36 -140 -81 -275 -44 -135 -85 -259 -91
-276 -5 -17 -10 -39 -10 -50 0 -11 -4 -24 -9 -30 -12 -11 -27 -111 -36 -234
-4 -52 -13 -112 -20 -132 -19 -56 -8 -46 21 19 15 32 53 93 86 136 32 43 87
133 121 200 60 116 226 381 235 373 2 -3 -8 -94 -22 -203 -25 -189 -46 -396
-46 -456 0 -19 7 -30 20 -35 18 -7 16 -13 -33 -79 -143 -196 -176 -248 -385
-598 -97 -164 -252 -435 -252 -442 0 -2 -22 -42 -49 -88 l-50 -83 28 -54 c15
-29 72 -121 127 -204 54 -83 119 -183 144 -223 25 -40 87 -134 139 -209 52
-75 134 -197 184 -270 49 -74 96 -136 103 -139 8 -3 29 7 47 21 17 15 57 47
87 71 30 25 62 45 70 45 38 1 61 38 75 117 11 66 43 244 110 608 12 63 36 199
64 360 48 272 131 873 131 947 0 31 4 38 20 38 13 0 40 28 81 83 70 92 152
187 282 323 76 80 88 90 97 74 5 -9 35 -93 66 -186 31 -93 79 -230 108 -304
29 -74 70 -182 91 -240 39 -107 75 -181 102 -212 14 -16 20 -15 87 19 39 20
114 64 166 98 140 91 377 233 520 310 69 37 150 83 181 101 97 58 704 358 939
464 124 56 295 135 380 175 85 40 218 99 295 130 77 31 219 91 315 135 96 43
254 113 350 155 96 42 204 89 240 105 36 16 121 49 190 73 319 113 718 289
916 403 296 170 411 245 513 333 36 31 90 76 121 101 31 25 92 83 136 128 184
194 307 395 404 657 18 50 36 95 40 100 3 6 13 29 20 53 21 67 33 63 25 -9
-10 -92 -75 -332 -96 -353 -5 -6 -9 -16 -9 -23 0 -35 -139 -297 -226 -425
-182 -268 -506 -564 -795 -726 -68 -38 -158 -90 -199 -114 -109 -63 -380 -192
-490 -232 -52 -19 -149 -59 -215 -89 -66 -30 -163 -71 -215 -91 -52 -21 -133
-53 -180 -73 -47 -20 -114 -48 -150 -63 -36 -15 -121 -51 -190 -80 -69 -29
-145 -63 -170 -75 -25 -13 -79 -38 -120 -56 -130 -55 -480 -233 -620 -314
-283 -164 -520 -322 -707 -473 -43 -34 -106 -85 -141 -113 -180 -145 -472
-420 -580 -547 -58 -67 -62 -86 -5 -24 148 160 299 293 331 293 66 0 245 -81
281 -127 20 -26 21 -35 16 -158 -7 -144 -2 -163 48 -200 34 -25 113 -28 251
-9 81 12 97 11 185 -9 53 -12 98 -23 101 -26 7 -6 -49 -50 -95 -73 -34 -17
-108 -69 -80 -56 242 113 698 347 900 463 77 45 201 113 275 153 176 95 192
104 410 236 102 61 208 125 235 140 77 44 435 285 580 390 116 85 300 230 585
462 188 153 498 484 610 653 24 36 54 78 67 94 33 40 161 259 178 304 7 20 27
65 44 100 17 34 31 65 31 68 0 3 13 32 30 65 30 61 55 126 71 187 5 17 13 47
18 65 44 156 66 258 87 412 25 178 27 298 9 515 -3 30 -7 84 -9 120 -3 36 -9
80 -15 98 -5 17 -8 32 -6 32 3 0 0 11 -5 25 -5 13 -11 43 -14 67 -13 108 -39
198 -56 198 -15 0 -19 -14 -8 -27 41 -50 -68 -584 -138 -669 l-23 -29 -2 110
c-1 61 -2 117 -1 125 0 8 -6 53 -14 100 -8 47 -17 114 -19 150 -8 113 -53 378
-75 436 -5 12 -10 53 -11 91 -2 50 -15 106 -50 214 -26 80 -52 172 -58 204
-28 149 -99 354 -193 555 -41 86 -88 211 -88 231 0 43 205 -158 354 -349 27
-34 57 -62 66 -62 19 0 30 -19 30 -49 0 -10 28 -65 63 -122 74 -122 176 -323
238 -466 24 -56 45 -100 47 -98 3 2 -17 55 -43 117 -26 62 -48 119 -48 126 0
6 -4 12 -9 12 -5 0 -6 4 -3 10 3 5 -1 23 -10 40 -8 16 -13 30 -10 30 4 0 -1 7
-9 16 -9 8 -14 20 -11 25 4 5 1 9 -5 9 -6 0 -14 10 -19 23 -5 12 -31 69 -58
127 -27 58 -56 121 -63 140 -8 19 -23 51 -35 70 -12 19 -43 75 -69 124 -66
122 -138 237 -190 304 -23 32 -55 80 -70 107 -15 28 -47 75 -70 105 -24 30
-67 89 -96 130 -29 41 -105 140 -168 220 -64 80 -141 177 -171 215 -30 39 -73
89 -95 113 l-41 43 -1 137 c0 75 -4 148 -8 162 -3 14 -11 59 -16 100 -5 41
-14 91 -19 110 -6 19 -13 52 -15 72 -12 95 -28 166 -87 401 -16 65 -27 127
-24 138 5 15 1 19 -19 19 -19 0 -24 -4 -19 -15 6 -18 -95 -125 -118 -125 -11
0 -13 16 -11 73 2 40 -4 141 -13 225 -8 84 -14 156 -12 160 3 4 -2 48 -9 97
-8 50 -18 133 -24 185 -5 52 -12 107 -16 122 -3 15 -8 54 -10 85 -7 79 -11
105 -29 203 -27 146 -37 194 -50 240 -7 25 -16 67 -19 93 -3 27 -17 85 -30
130 -14 45 -30 109 -35 141 -6 33 -43 155 -82 270 -70 208 -196 491 -285 639
-48 79 -179 208 -236 231 -24 10 -52 22 -63 27 -23 10 -160 39 -178 38 -7 0
-41 -7 -76 -14z m124 -240 c185 -30 302 -149 446 -452 38 -79 74 -163 80 -186
6 -23 37 -125 69 -227 66 -210 113 -442 126 -609 2 -30 9 -72 16 -95 20 -67
24 -217 15 -551 -7 -275 -36 -477 -106 -745 -26 -100 -21 -88 -127 -308 -52
-105 -94 -199 -94 -207 0 -22 -60 -105 -76 -105 -9 0 -14 11 -14 33 0 40 -67
308 -81 321 -16 17 -10 53 33 178 41 122 41 125 42 270 1 90 5 149 11 150 24
7 64 -114 92 -272 10 -58 33 -64 56 -13 70 159 98 269 133 520 21 154 26 223
25 378 -3 350 -11 446 -56 685 -9 47 -20 108 -24 135 -33 194 -120 482 -195
641 -56 117 -137 243 -185 287 -44 40 -124 79 -199 98 -47 12 -59 11 -102 -4
-83 -29 -212 -108 -264 -162 -107 -108 -263 -281 -311 -344 -273 -362 -512
-713 -514 -752 -1 -8 -27 -56 -60 -105 -103 -157 -187 -297 -226 -379 -64
-133 -156 -285 -173 -285 -12 0 -14 10 -8 61 4 46 17 81 51 142 44 80 67 127
145 292 20 44 78 141 127 216 50 75 99 151 108 170 16 30 40 68 134 214 14 22
53 76 87 120 33 44 78 105 99 135 21 30 93 123 159 205 179 223 363 403 475
467 81 47 203 97 226 93 11 -2 38 -7 60 -10z m-4993 -1066 c9 -35 33 -109 54
-164 20 -55 58 -163 84 -240 26 -77 56 -158 67 -180 25 -48 93 -274 120 -395
10 -42 5 -100 -8 -100 -5 0 -9 5 -9 12 0 6 -6 19 -14 27 -7 9 -31 72 -54 141
-22 69 -61 186 -87 260 -67 193 -163 509 -170 560 -9 69 -18 118 -22 134 -3
12 -1 17 8 14 8 -3 22 -34 31 -69z m1164 -205 c18 -14 18 -14 -6 -3 -31 14
-36 19 -24 19 6 0 19 -7 30 -16z m419 -282 c-3 -3 -11 0 -18 7 -9 10 -8 11 6
5 10 -3 15 -9 12 -12z m80 -52 c3 -5 1 -10 -4 -10 -6 0 -11 5 -11 10 0 6 2 10
4 10 3 0 8 -4 11 -10z m3002 -36 c-3 -3 -12 -4 -19 -1 -8 3 -5 6 6 6 11 1 17
-2 13 -5z m-112 -21 c-124 -36 -338 -139 -406 -197 -14 -11 -4 -1 21 24 58 57
178 125 256 146 32 9 79 23 104 30 25 7 52 12 60 12 8 0 -7 -7 -35 -15z
m-1456 -8 c2 -3 -43 -53 -101 -112 -106 -109 -164 -177 -208 -245 -35 -52 -52
-50 -31 4 40 102 58 140 92 195 21 35 34 63 29 63 -5 0 -54 -9 -109 -19 -100
-20 -142 -36 -196 -75 -16 -12 -60 -39 -97 -59 -61 -34 -107 -68 -345 -253
-92 -71 -445 -431 -500 -509 -23 -33 -72 -100 -108 -150 -102 -141 -137 -198
-239 -387 -33 -62 -61 -79 -50 -30 22 93 205 420 310 551 7 9 42 54 79 101 77
97 297 312 460 449 133 112 292 219 439 298 111 59 143 87 89 78 -15 -2 -64
-7 -108 -10 -169 -10 -230 -17 -235 -24 -3 -4 -23 -8 -45 -8 -22 0 -67 -5
-100 -11 -33 -6 -79 -13 -103 -16 -23 -3 -47 -8 -54 -12 -6 -4 -23 -7 -39 -6
-20 0 -26 -3 -22 -14 3 -8 1 -14 -4 -14 -16 0 -95 -80 -183 -185 -46 -55 -107
-125 -134 -156 -28 -30 -69 -84 -90 -120 -22 -35 -82 -128 -134 -207 -93 -141
-138 -224 -187 -345 -39 -95 -40 -96 -78 -182 -20 -44 -42 -97 -50 -118 -15
-44 -34 -50 -29 -9 7 60 97 307 160 443 48 102 163 290 266 434 20 28 41 58
48 68 68 99 294 337 358 377 l35 22 -55 -7 c-30 -3 -102 -21 -160 -40 -119
-38 -182 -55 -225 -62 -67 -10 -218 -67 -307 -115 -24 -13 -63 -32 -88 -43
-161 -70 -356 -214 -517 -383 -46 -47 -85 -83 -88 -80 -10 9 157 287 176 293
11 4 19 11 19 16 0 12 -17 12 -25 0 -3 -5 -30 -21 -60 -35 -78 -35 -292 -185
-400 -280 -171 -149 -203 -176 -264 -216 -33 -22 -63 -40 -67 -40 -11 0 6 50
30 88 13 20 54 71 92 113 183 203 407 364 675 485 64 29 152 72 195 97 104 59
160 82 399 162 199 67 380 117 465 130 25 3 68 12 95 20 77 21 204 48 239 50
17 2 72 6 121 9 100 8 182 15 235 21 19 2 111 6 204 9 94 4 171 8 173 9 4 5
347 -3 352 -8z m1524 -192 c-7 -2 -19 -2 -25 0 -7 3 -2 5 12 5 14 0 19 -2 13
-5z m147 -2 c61 -11 4 -12 -65 -1 -41 6 -44 7 -15 8 19 0 55 -3 80 -7z m93
-18 c-7 -2 -21 -2 -30 0 -10 3 -4 5 12 5 17 0 24 -2 18 -5z m-2627 -108 c-11
-8 -24 -15 -30 -15 -5 0 -1 7 10 15 10 8 24 14 29 14 6 0 1 -6 -9 -14z m2251
-121 c-3 -3 -12 -4 -19 -1 -8 3 -5 6 6 6 11 1 17 -2 13 -5z m86 -1 c-7 -2 -21
-2 -30 0 -10 3 -4 5 12 5 17 0 24 -2 18 -5z m-213 -13 c12 -8 9 -10 -13 -10
-16 0 -26 4 -22 10 8 12 16 12 35 0z m-233 -67 c-7 -10 -125 -70 -157 -78 -39
-11 -20 2 66 44 80 40 99 47 91 34z m-4545 -575 c-7 -7 -12 -8 -12 -2 0 14 12
26 19 19 2 -3 -1 -11 -7 -17z m-105 -86 c-15 -16 -14 -25 8 -107 12 -50 26
-101 31 -114 5 -17 4 -22 -5 -17 -17 11 -40 72 -56 146 -13 62 -13 66 7 88 12
12 24 22 26 22 3 0 -2 -8 -11 -18z m405 -143 c-6 -13 -20 -58 -32 -99 -12 -41
-26 -86 -31 -100 -18 -56 -38 -159 -43 -220 -38 -471 -55 -618 -78 -660 -10
-19 -18 -44 -18 -55 0 -22 -24 -95 -40 -123 -5 -9 -25 -51 -43 -92 -27 -60
-48 -89 -103 -140 -101 -96 -380 -375 -446 -448 -49 -54 -61 -62 -83 -56 -35
9 -37 16 -13 60 50 94 163 222 356 404 167 156 218 227 255 350 44 146 57 205
57 256 0 27 4 94 10 149 5 55 14 157 20 227 9 121 18 159 77 333 9 27 39 85
66 130 28 44 57 91 65 104 18 30 37 14 24 -20z m-469 -766 c14 -21 44 -77 67
-125 l40 -86 -11 -79 c-14 -107 -56 -219 -97 -265 -19 -21 -38 -38 -42 -38 -5
0 -14 17 -21 38 -7 20 -18 47 -26 59 -9 13 -12 31 -8 43 4 12 1 27 -6 36 -21
26 0 196 48 392 8 34 19 62 23 62 4 0 19 -17 33 -37z m2662 21 c66 -4 163 -7
215 -9 110 -3 115 -7 79 -83 -89 -188 -257 -384 -436 -508 -129 -91 -167 -105
-383 -145 -172 -32 -186 -32 -277 -11 -49 12 -144 29 -213 37 -68 9 -126 17
-127 18 -5 5 31 105 56 155 14 29 50 83 78 120 29 37 70 92 92 122 79 110 171
175 337 236 139 51 218 70 299 73 38 1 72 4 74 7 3 3 23 2 45 -1 23 -2 95 -8
161 -11z m4383 -464 c13 -25 39 -74 58 -110 19 -36 58 -123 86 -195 28 -71 65
-164 83 -205 80 -187 216 -663 250 -875 8 -49 29 -173 46 -275 16 -102 39
-246 49 -320 22 -159 45 -288 84 -485 9 -44 25 -134 37 -200 11 -66 32 -155
45 -197 l25 -77 -31 -55 c-45 -79 -228 -276 -361 -387 -131 -110 -196 -159
-329 -252 -52 -36 -113 -79 -135 -95 -101 -72 -377 -238 -536 -322 -96 -51
-221 -118 -279 -149 -58 -31 -130 -68 -160 -83 -141 -68 -634 -284 -810 -355
-527 -214 -1335 -580 -1680 -761 -351 -184 -731 -403 -1003 -579 -54 -35 -102
-63 -106 -63 -8 0 -65 133 -124 290 -78 203 -125 333 -177 480 -32 91 -68 192
-80 225 -12 33 -28 78 -35 100 -7 22 -32 92 -55 155 -23 63 -63 178 -90 255
-81 232 -119 303 -161 292 -37 -10 -18 10 29 30 86 38 904 317 1297 442 55 18
168 54 250 81 83 27 242 76 355 110 113 34 246 74 295 90 50 16 144 45 210 65
66 20 138 42 160 50 22 7 65 20 95 29 51 15 329 104 550 176 52 17 169 53 260
81 193 58 320 101 387 130 26 12 84 34 128 49 304 108 723 309 1005 483 189
116 289 191 485 361 88 77 181 155 208 174 43 31 47 37 43 66 -3 17 -11 74
-17 126 -6 52 -13 104 -16 115 -3 11 -6 38 -8 60 -5 68 -15 137 -30 195 -7 30
-13 62 -14 70 -1 33 -20 159 -34 230 -9 41 -20 107 -27 145 -6 39 -22 106 -35
150 -28 96 -54 192 -100 371 -30 118 -80 263 -129 377 -16 36 -16 38 0 35 10
-2 28 -23 42 -48z m-5548 16 c0 -16 -25 -89 -45 -133 -9 -17 -18 -46 -21 -65
-9 -45 -26 -62 -119 -123 -44 -29 -102 -71 -130 -94 -53 -44 -71 -51 -61 -25
14 36 222 343 233 344 6 0 33 25 58 55 45 52 85 72 85 41z m4291 -115 c24 -15
94 -65 154 -110 61 -46 131 -96 158 -113 26 -17 47 -36 47 -41 0 -5 39 -50 87
-101 50 -52 119 -140 161 -206 41 -63 85 -127 98 -141 l25 -26 -71 -32 c-71
-33 -91 -37 -161 -33 l-36 2 -7 88 c-6 75 -12 99 -51 178 -75 156 -260 377
-417 502 -32 25 -58 49 -58 53 0 16 26 9 71 -20z m-3984 -277 c-3 -3 -12 -4
-19 -1 -8 3 -5 6 6 6 11 1 17 -2 13 -5z m128 -14 c27 -7 28 -8 5 -8 -14 0 -45
3 -70 7 l-45 8 40 1 c22 0 54 -4 70 -8z m70 0 c19 -8 19 -9 -2 -9 -12 -1 -25
4 -28 9 -7 12 2 12 30 0z m52 4 c-3 -3 -12 -4 -19 -1 -8 3 -5 6 6 6 11 1 17
-2 13 -5z m50 0 c-3 -3 -12 -4 -19 -1 -8 3 -5 6 6 6 11 1 17 -2 13 -5z m-2504
-477 c73 -33 118 -40 141 -22 11 8 32 15 47 15 16 0 54 7 86 15 103 28 219 -6
332 -95 28 -22 57 -40 65 -40 8 0 31 10 51 21 20 12 38 19 41 17 13 -13 -16
-44 -83 -88 -70 -46 -78 -49 -121 -43 -26 3 -67 14 -93 23 -52 19 -64 16 -116
-33 -29 -28 -33 -37 -33 -86 0 -35 7 -70 21 -97 l20 -43 -25 -38 c-14 -21 -26
-42 -26 -47 0 -21 -35 -46 -65 -46 -68 0 -165 91 -228 216 -14 27 -46 81 -72
119 -26 39 -60 96 -77 129 -26 52 -28 61 -17 90 24 62 64 71 152 33z m5277
-117 c0 -5 -2 -10 -4 -10 -3 0 -8 5 -11 10 -3 6 -1 10 4 10 6 0 11 -4 11 -10z
m-1190 -31 c85 -6 182 -13 215 -14 78 -4 975 -122 1023 -134 20 -6 73 -18 117
-27 44 -9 105 -23 135 -31 30 -8 73 -19 95 -23 62 -13 140 -35 270 -75 66 -21
134 -41 150 -45 57 -14 190 -62 199 -71 21 -20 -5 -17 -99 11 -55 17 -125 37
-155 46 -30 9 -64 20 -75 24 -19 7 -38 13 -142 39 -24 6 -60 15 -80 21 -202
53 -337 79 -588 114 -696 98 -1026 122 -1545 111 -190 -4 -363 -9 -385 -10
-42 -4 -327 -21 -505 -31 -58 -3 -112 -7 -121 -10 -45 -13 -908 -124 -963
-124 -17 0 -26 4 -20 8 17 15 181 51 424 93 30 5 65 11 78 13 13 3 60 10 105
16 45 7 118 18 162 26 196 34 686 75 1045 87 138 5 512 -3 660 -14z m1237 15
c-3 -3 -12 -4 -19 -1 -8 3 -5 6 6 6 11 1 17 -2 13 -5z m1593 -3 c0 -5 -6 -26
-14 -47 -7 -22 -16 -64 -20 -94 -7 -57 -22 -120 -36 -155 -5 -11 -16 -42 -26
-70 -22 -63 -73 -159 -132 -250 -58 -88 -295 -334 -344 -357 -49 -22 -168
-117 -168 -134 0 -16 -31 -34 -59 -34 -24 0 -28 -15 -6 -24 28 -10 127 -77
122 -82 -2 -2 -40 14 -83 37 l-79 42 -95 -55 c-98 -56 -237 -114 -420 -174
-58 -19 -113 -39 -122 -44 -10 -6 -26 -10 -35 -10 -10 -1 -31 -7 -48 -14 l-30
-13 50 -26 c28 -15 91 -56 140 -92 50 -36 109 -78 133 -93 77 -48 177 -122
165 -122 -6 0 -93 50 -194 112 -101 61 -213 127 -249 146 -36 18 -69 41 -74
50 -5 9 -10 18 -11 19 -1 2 -55 -11 -121 -27 -65 -17 -157 -37 -204 -45 -47
-8 -136 -23 -199 -34 -80 -14 -121 -17 -139 -10 -13 5 -23 11 -21 13 2 2 45
14 94 26 114 27 178 46 285 81 47 15 100 30 118 34 18 4 30 10 27 14 -4 7
-173 92 -220 111 -123 49 -158 66 -162 77 -3 7 -8 11 -12 9 -4 -3 -47 15 -97
40 -49 24 -99 44 -111 44 -12 0 -25 5 -28 10 -3 6 -18 10 -33 10 -15 0 -40 7
-57 16 -16 9 -46 20 -65 24 -19 5 -82 25 -140 45 -58 21 -118 41 -135 45 -35
9 -365 105 -410 119 -16 6 -48 13 -70 16 -22 4 -51 10 -65 15 -14 4 -63 15
-110 25 -47 9 -114 23 -150 31 -115 24 -236 43 -685 104 -350 47 -481 61 -637
66 -109 4 -198 10 -198 14 0 9 61 20 108 20 20 0 35 6 38 15 4 8 10 12 16 9 5
-3 116 -7 246 -9 204 -2 276 -8 517 -39 154 -21 336 -49 405 -63 69 -14 136
-27 150 -30 14 -2 34 -8 45 -13 11 -4 45 -13 75 -19 101 -19 245 -50 280 -60
19 -6 76 -20 125 -32 112 -26 216 -59 475 -148 115 -39 207 -74 245 -91 11 -5
43 -18 70 -30 28 -12 59 -25 70 -30 11 -5 54 -21 95 -36 41 -15 127 -52 190
-82 63 -30 156 -74 207 -98 50 -24 93 -49 95 -55 3 -8 22 -2 59 17 29 17 90
45 134 64 150 64 475 238 475 255 0 4 -52 28 -115 54 -11 5 -33 14 -50 21 -16
7 -55 20 -85 30 -30 10 -90 34 -132 54 -42 20 -80 36 -84 36 -3 0 -20 6 -37
14 -68 29 -95 39 -182 68 -49 16 -99 33 -110 38 -11 4 -40 13 -65 20 -25 7
-65 19 -90 27 -25 8 -63 18 -85 23 -39 8 -256 61 -325 80 -89 24 -248 60 -265
60 -10 0 -46 7 -79 15 -71 17 -865 124 -976 131 -198 12 -904 19 -931 9 -8 -2
-99 -7 -204 -9 -104 -3 -237 -8 -295 -11 -127 -7 -118 7 21 30 103 18 171 26
421 50 201 20 684 19 980 -1 192 -14 611 -67 803 -103 228 -43 264 -50 350
-71 50 -12 106 -25 125 -30 19 -5 85 -21 145 -35 113 -28 254 -69 290 -85 11
-5 52 -19 90 -30 114 -35 335 -110 410 -140 39 -15 104 -40 145 -56 41 -15
117 -47 168 -71 51 -23 95 -43 97 -43 3 0 29 -12 59 -26 l54 -25 73 47 c169
109 269 193 349 294 24 30 67 80 96 110 28 31 59 71 69 90 9 19 37 64 60 100
56 83 102 210 112 306 5 43 9 54 22 52 9 -1 33 4 55 11 21 7 55 13 75 13 20 0
47 6 61 13 29 17 40 18 40 6z m-1537 -18 c-7 -2 -19 -2 -25 0 -7 3 -2 5 12 5
14 0 19 -2 13 -5z m644 -59 c-3 -3 -12 -4 -19 -1 -8 3 -5 6 6 6 11 1 17 -2 13
-5z m-6652 -244 c3 -5 1 -10 -4 -10 -6 0 -11 5 -11 10 0 6 2 10 4 10 3 0 8 -4
11 -10z m944 -268 c44 -87 97 -162 147 -207 149 -135 304 -230 520 -320 49
-20 96 -40 104 -44 8 -4 71 -23 140 -41 69 -19 127 -35 129 -37 3 -2 0 -8 -5
-13 -11 -11 -222 12 -283 31 -46 14 -165 57 -211 76 -84 35 -240 115 -240 122
0 5 -30 31 -68 58 -37 27 -98 75 -134 106 -37 31 -71 57 -76 57 -4 0 -14 -17
-21 -37 -8 -21 -22 -58 -33 -83 -11 -24 -21 -55 -22 -67 -1 -25 -40 -44 -55
-27 -5 5 2 70 15 144 12 74 26 186 30 248 4 61 11 112 15 112 5 0 26 -35 48
-78z m1911 -232 c185 -25 273 -40 365 -64 11 -3 61 -15 110 -27 244 -59 578
-178 853 -305 41 -19 76 -34 78 -34 21 0 160 -70 231 -117 52 -34 146 -86 262
-145 35 -18 100 -64 144 -101 45 -38 104 -83 132 -102 27 -18 82 -53 122 -79
40 -25 99 -69 133 -97 61 -50 145 -147 136 -157 -3 -2 -44 32 -92 77 -48 45
-137 115 -198 156 -61 40 -126 85 -145 99 -19 14 -40 26 -47 26 -6 0 -48 24
-91 54 -44 29 -89 56 -100 60 -11 3 -28 14 -39 24 -26 23 -365 192 -385 192
-9 0 -28 11 -43 25 -15 14 -30 25 -33 25 -11 0 -158 75 -161 82 -2 5 -12 8
-22 8 -11 0 -36 7 -57 16 -68 30 -77 33 -163 59 -47 14 -93 30 -102 35 -10 6
-28 10 -42 10 -13 0 -29 7 -36 15 -7 8 -23 15 -35 15 -12 0 -28 7 -35 15 -7 8
-20 15 -29 15 -9 0 -36 7 -61 16 -25 9 -79 25 -120 36 -41 11 -88 23 -105 28
-227 64 -388 96 -732 147 -64 9 -113 21 -113 27 0 15 143 3 420 -34z m-1881
-321 c-19 -12 -24 -2 -8 17 9 11 14 13 17 4 3 -7 -2 -16 -9 -21z m2091 -395
c0 -8 -4 -14 -8 -14 -38 0 -281 -38 -421 -65 -248 -50 -470 -69 -464 -41 3 14
74 30 296 70 267 48 365 60 520 62 58 1 77 -2 77 -12z m2145 -54 c3 -5 1 -10
-4 -10 -6 0 -11 5 -11 10 0 6 2 10 4 10 3 0 8 -4 11 -10z m-2694 -255 c71 -51
118 -170 134 -335 4 -36 9 -81 11 -100 18 -165 -5 -347 -68 -530 -35 -103 -45
-115 -53 -64 -4 22 -11 53 -16 69 -14 46 -14 116 -1 283 13 151 9 305 -8 412
-9 54 -23 133 -35 199 -3 18 -12 49 -20 67 -18 44 -4 44 56 -1z m-64 -642 c-2
-281 9 -344 108 -592 61 -156 61 -205 -2 -131 -39 45 -51 47 -112 20 -67 -31
-132 -91 -234 -218 -175 -217 -354 -496 -490 -762 -38 -74 -66 -121 -62 -105
3 17 12 66 20 110 34 196 89 390 107 379 6 -4 8 -2 5 3 -4 6 0 24 8 39 8 16
15 48 15 71 0 24 6 48 16 57 8 9 13 19 10 24 -4 7 11 49 35 94 5 10 9 25 9 33
0 8 4 23 10 33 8 15 53 144 130 372 22 68 30 88 48 130 6 14 23 53 37 88 14
34 39 92 55 127 16 35 36 81 45 101 32 76 116 211 175 282 33 39 63 72 65 72
2 0 3 -102 2 -227z m73 -740 c14 -9 38 -29 53 -45 26 -27 29 -28 50 -13 30 21
50 19 74 -7 19 -20 63 -119 63 -140 0 -8 -19 -3 -55 13 -38 16 -179 59 -214
65 -63 10 -131 28 -131 34 0 9 82 86 105 98 26 15 26 15 55 -5z"/>
<path d="M9980 10585 c0 -8 5 -15 10 -15 6 0 10 7 10 15 0 8 -4 15 -10 15 -5
0 -10 -7 -10 -15z"/>
<path d="M11444 6811 c-17 -10 -40 -38 -52 -61 -20 -41 -20 -41 -33 -18 -6 12
-13 24 -14 26 -3 3 -83 -35 -93 -43 -3 -3 168 -368 178 -379 7 -7 100 20 100
29 0 1 -27 62 -59 135 l-60 133 19 37 c11 22 31 42 49 50 26 10 31 18 31 45 0
68 -14 78 -66 46z"/>
<path d="M10647 6646 c-20 -12 -39 -25 -42 -28 -4 -4 39 -103 65 -150 21 -37
12 -48 -34 -47 -55 3 -129 -38 -153 -84 -46 -88 -30 -204 39 -282 51 -58 83
-74 150 -77 68 -3 120 27 150 86 20 39 21 40 31 19 12 -28 17 -28 68 -2 25 12
39 25 36 34 -19 48 -262 555 -266 555 -3 0 -23 -11 -44 -24z m71 -303 c24 -21
82 -152 82 -185 0 -27 -25 -61 -57 -77 -58 -29 -119 3 -157 83 -43 91 -30 152
38 182 42 18 70 17 94 -3z"/>
<path d="M11005 6612 c-108 -59 -140 -181 -79 -299 18 -34 45 -67 71 -85 94
-68 242 -40 318 60 39 50 40 61 5 79 -22 11 -28 8 -71 -32 -26 -24 -59 -47
-73 -51 -41 -10 -96 5 -123 34 l-24 27 135 64 c75 36 136 70 136 77 0 6 -15
34 -32 60 -64 95 -165 120 -263 66z m125 -67 c16 -8 34 -23 39 -34 9 -16 -1
-23 -76 -59 -94 -45 -103 -44 -103 13 0 35 25 70 60 84 35 14 47 13 80 -4z"/>
<path d="M10208 6240 c-36 -19 -68 -56 -82 -95 -7 -19 -8 -19 -25 4 l-18 23
-42 -21 c-32 -17 -41 -26 -36 -40 7 -22 164 -363 170 -369 8 -8 95 31 95 43 0
7 -27 70 -61 141 -65 138 -68 156 -24 200 29 29 84 33 107 7 9 -10 43 -75 77
-145 33 -71 65 -128 71 -128 6 0 28 9 50 20 l39 20 -30 66 c-66 149 -111 232
-138 259 -39 37 -102 43 -153 15z"/>
<path d="M9782 6234 c-48 -34 -11 -123 46 -109 34 8 62 33 62 55 0 27 -39 70
-64 70 -12 0 -32 -7 -44 -16z"/>
<path d="M9877 6074 c-41 -21 -47 -28 -41 -47 16 -49 170 -366 178 -367 15 0
96 41 96 49 0 4 -4 11 -9 17 -4 5 -45 90 -91 189 -45 99 -83 181 -84 182 0 0
-23 -10 -49 -23z"/>
<path d="M9648 5977 c-42 -19 -78 -55 -94 -93 -17 -39 -12 -38 -55 -20 -28 12
-40 12 -77 1 -53 -16 -80 -39 -99 -84 l-15 -35 -17 23 -18 23 -41 -21 c-23
-12 -42 -25 -42 -30 0 -8 38 -91 132 -291 22 -47 42 -87 43 -89 8 -8 95 33 95
45 0 7 -27 70 -60 139 -33 69 -60 136 -60 149 0 29 37 64 77 72 24 5 35 1 52
-17 11 -12 21 -26 21 -30 0 -7 109 -240 116 -248 7 -8 94 33 94 44 0 7 -27 70
-60 139 -33 70 -60 137 -60 150 0 35 54 78 94 74 29 -3 35 -11 103 -150 l72
-147 41 17 c23 9 44 21 46 27 5 13 -92 228 -131 289 -14 23 -35 47 -45 53 -29
19 -83 23 -112 10z"/>
<path d="M8955 5653 c-142 -74 -165 -240 -52 -369 87 -99 249 -81 351 40 34
40 38 48 25 60 -29 28 -57 29 -75 1 -9 -14 -37 -37 -61 -52 -35 -20 -52 -24
-85 -20 -44 6 -100 50 -83 65 6 5 66 35 135 66 68 32 126 59 128 61 5 5 -38
87 -57 109 -46 53 -162 73 -226 39z m114 -78 c30 -15 47 -43 34 -56 -4 -4 -44
-23 -88 -43 -89 -39 -97 -36 -86 29 5 30 14 45 40 62 40 27 61 29 100 8z"/>
<path d="M8500 5616 c-39 -15 -232 -105 -237 -110 -7 -7 244 -540 255 -544 7
-2 102 36 102 41 0 1 -23 49 -51 107 -48 98 -49 105 -32 118 43 31 59 26 170
-49 59 -39 115 -72 125 -71 26 1 109 42 103 51 -2 5 -44 33 -91 62 -48 30
-101 66 -118 81 l-31 26 23 25 c33 35 42 129 17 180 -27 57 -79 90 -144 94
-31 1 -72 -4 -91 -11z m114 -117 c30 -35 34 -83 10 -117 -19 -27 -133 -87
-144 -75 -4 4 -23 43 -43 86 l-36 77 57 30 c77 39 122 39 156 -1z"/>
<path d="M8248 5309 c-22 -11 -38 -27 -38 -37 1 -9 14 -77 29 -149 16 -73 25
-133 21 -133 -7 0 -15 8 -129 142 l-75 86 -39 -19 c-39 -20 -39 -21 -32 -67 4
-26 15 -92 26 -146 11 -54 17 -101 15 -103 -5 -5 -153 166 -176 203 -18 29
-15 29 -75 1 l-48 -24 89 -98 c49 -54 103 -114 119 -134 17 -19 44 -50 61 -70
l31 -35 49 20 c55 23 54 18 29 149 -7 39 -16 90 -20 115 l-6 45 53 -55 c29
-30 74 -79 100 -109 l46 -54 44 25 c52 29 51 11 12 248 -8 52 -17 113 -20 135
-8 63 -14 85 -22 85 -4 -1 -24 -10 -44 -21z"/>
<path d="M7472 5102 c-38 -52 -29 -132 18 -177 22 -21 35 -26 55 -21 83 21 89
142 9 205 -36 28 -59 26 -82 -7z"/>
<path d="M7253 5018 c-20 -26 -23 -51 -11 -90 17 -57 61 -98 104 -98 68 0 96
69 54 138 -31 50 -123 81 -147 50z"/>
<path d="M7685 4988 c-40 -35 -48 -88 -21 -141 16 -32 27 -43 49 -45 65 -8
112 72 83 141 -14 34 -50 67 -73 67 -6 0 -24 -10 -38 -22z"/>
<path d="M7476 4790 c-23 -20 -37 -45 -45 -77 -7 -27 -16 -62 -21 -79 -17 -52
-12 -112 10 -134 36 -36 91 -26 220 38 101 50 117 62 134 95 18 38 18 39 0 64
-26 35 -176 114 -225 118 -33 3 -46 -1 -73 -25z"/>
<path d="M7211 4781 c-26 -26 -27 -57 -1 -98 28 -47 63 -67 105 -59 51 10 69
55 43 110 -14 32 -45 53 -91 61 -28 6 -39 3 -56 -14z"/>
<path d="M6564 4713 l-52 -26 4 -81 c2 -45 6 -137 9 -205 l6 -123 -146 136
c-80 75 -151 136 -158 136 -6 0 -36 -11 -64 -25 -62 -28 -67 -1 41 -235 136
-293 159 -340 168 -340 12 0 88 39 88 45 0 8 -90 205 -131 287 -24 48 -34 78
-27 78 7 -1 69 -54 138 -120 l125 -119 30 18 c17 10 29 23 28 28 -8 40 -14
345 -7 340 5 -3 45 -84 89 -181 44 -96 86 -176 93 -176 14 0 92 38 92 44 0 5
-132 291 -203 439 -28 59 -56 107 -62 106 -5 0 -33 -12 -61 -26z"/>
<path d="M6964 4720 c-18 -6 -50 -28 -73 -51 -71 -71 -82 -168 -30 -271 44
-87 111 -124 209 -115 74 6 139 43 180 99 37 50 37 60 3 75 -25 12 -30 10 -79
-37 -48 -46 -57 -50 -101 -50 -40 0 -54 5 -82 31 -18 16 -31 32 -29 35 3 2 63
31 134 64 71 33 130 64 132 70 6 18 -47 98 -84 127 -40 30 -122 40 -180 23z
m82 -80 c16 -6 37 -22 46 -35 l18 -23 -86 -42 c-48 -22 -88 -39 -91 -37 -2 3
-6 20 -9 39 -5 29 -1 40 29 71 37 40 48 43 93 27z"/>
<path d="M10160 13466 c0 -2 7 -9 15 -16 13 -11 14 -10 9 4 -5 14 -24 23 -24
12z"/>
<path d="M4540 13210 c8 -5 20 -10 25 -10 6 0 3 5 -5 10 -8 5 -19 10 -25 10
-5 0 -3 -5 5 -10z"/>
<path d="M4787 13069 c7 -7 15 -10 18 -7 3 3 -2 9 -12 12 -14 6 -15 5 -6 -5z"/>
<path d="M8379 13053 l-24 -28 28 24 c15 14 27 26 27 28 0 8 -8 1 -31 -24z"/>
<path d="M10395 12940 c9 -16 18 -30 21 -30 2 0 -2 14 -11 30 -9 17 -18 30
-21 30 -2 0 2 -13 11 -30z"/>
<path d="M10470 12745 c0 -5 5 -17 10 -25 5 -8 10 -10 10 -5 0 6 -5 17 -10 25
-5 8 -10 11 -10 5z"/>
<path d="M4241 12574 c0 -11 3 -14 6 -6 3 7 2 16 -1 19 -3 4 -6 -2 -5 -13z"/>
<path d="M10590 12246 c0 -8 4 -17 9 -20 5 -4 7 3 4 14 -6 23 -13 26 -13 6z"/>
<path d="M3380 11885 c36 -37 81 -84 100 -104 76 -77 257 -303 271 -336 17
-42 57 -95 72 -95 26 0 21 15 -26 88 -97 148 -300 375 -419 466 l-63 49 65
-68z"/>
<path d="M3120 11461 c0 -8 34 -21 55 -21 11 1 -35 29 -47 30 -5 0 -8 -4 -8
-9z"/>
<path d="M10686 11230 c2 -36 9 -78 14 -95 8 -25 9 -22 5 20 -3 28 -10 70 -15
95 -8 41 -9 39 -4 -20z"/>
<path d="M3850 11271 c0 -6 5 -13 10 -16 6 -3 10 1 10 9 0 9 -4 16 -10 16 -5
0 -10 -4 -10 -9z"/>
<path d="M3887 11244 c-15 -15 -6 -32 13 -27 12 3 19 10 17 16 -4 14 -21 19
-30 11z"/>
<path d="M3900 11169 c0 -5 5 -7 10 -4 6 3 10 8 10 11 0 2 -4 4 -10 4 -5 0
-10 -5 -10 -11z"/>
<path d="M10715 11041 c2 -35 9 -68 15 -75 9 -8 10 -3 4 24 -4 19 -11 53 -15
75 -7 32 -7 27 -4 -24z"/>
<path d="M3993 10965 c0 -8 4 -12 9 -9 4 3 8 9 8 15 0 5 -4 9 -8 9 -5 0 -9 -7
-9 -15z"/>
<path d="M4010 10909 c0 -5 5 -7 10 -4 6 3 10 8 10 11 0 2 -4 4 -10 4 -5 0
-10 -5 -10 -11z"/>
<path d="M3840 10760 c0 -5 5 -10 10 -10 6 0 10 5 10 10 0 6 -4 10 -10 10 -5
0 -10 -4 -10 -10z"/>
<path d="M2405 8360 c-4 -7 6 -11 27 -10 18 0 51 -2 73 -5 l40 -4 -40 14 c-49
16 -92 19 -100 5z"/>
<path d="M2240 8350 c0 -6 28 -10 65 -10 37 0 65 4 65 10 0 6 -28 10 -65 10
-37 0 -65 -4 -65 -10z"/>
<path d="M2801 8316 c3 -3 57 -15 120 -26 63 -12 122 -23 132 -26 9 -3 17 -1
17 4 0 7 -60 19 -240 49 -19 3 -32 3 -29 -1z"/>
<path d="M2761 7943 c-13 -15 -12 -16 10 -10 13 4 40 7 59 7 26 0 31 3 20 10
-23 15 -73 11 -89 -7z"/>
<path d="M2690 7928 c0 -5 -13 -8 -29 -8 -17 0 -33 -5 -37 -11 -5 -8 2 -10 25
-5 17 3 45 9 61 12 36 8 40 22 5 20 -14 0 -25 -4 -25 -8z"/>
<path d="M2555 7890 c-3 -6 5 -10 19 -10 14 0 28 5 31 10 3 6 -5 10 -19 10
-14 0 -28 -4 -31 -10z"/>
<path d="M2470 7870 c0 -5 9 -10 19 -10 11 0 23 5 26 10 4 6 -5 10 -19 10 -14
0 -26 -4 -26 -10z"/>
<path d="M12220 7655 c0 -5 5 -17 10 -25 5 -8 10 -10 10 -5 0 6 -5 17 -10 25
-5 8 -10 11 -10 5z"/>
<path d="M2968 7623 c6 -2 18 -2 25 0 6 3 1 5 -13 5 -14 0 -19 -2 -12 -5z"/>
<path d="M2920 7599 c0 -5 5 -7 10 -4 6 3 10 8 10 11 0 2 -4 4 -10 4 -5 0 -10
-5 -10 -11z"/>
<path d="M2760 7530 c0 -5 4 -10 9 -10 6 0 13 5 16 10 3 6 -1 10 -9 10 -9 0
-16 -4 -16 -10z"/>
<path d="M2725 7510 c-3 -5 -1 -10 4 -10 6 0 11 5 11 10 0 6 -2 10 -4 10 -3 0
-8 -4 -11 -10z"/>
<path d="M2660 7480 c0 -5 7 -7 15 -4 8 4 15 8 15 10 0 2 -7 4 -15 4 -8 0 -15
-4 -15 -10z"/>
<path d="M2535 7448 c-123 -76 -353 -308 -305 -308 5 0 10 4 10 9 0 27 325
281 360 281 14 0 12 26 -3 38 -9 8 -26 3 -62 -20z"/>
<path d="M2620 7460 c0 -5 7 -10 15 -10 8 0 15 5 15 10 0 6 -7 10 -15 10 -8 0
-15 -4 -15 -10z"/>
<path d="M2730 7035 c0 -7 -6 -18 -14 -22 -34 -19 -217 -318 -215 -351 0 -11
4 -8 10 8 6 13 13 27 17 30 4 3 28 36 52 75 25 38 69 100 98 137 28 38 52 73
52 78 0 5 9 14 21 20 16 9 18 14 8 26 -15 18 -29 18 -29 -1z"/>
<path d="M12392 6300 c0 -14 2 -19 5 -12 2 6 2 18 0 25 -3 6 -5 1 -5 -13z"/>
<path d="M12382 6220 c0 -14 2 -19 5 -12 2 6 2 18 0 25 -3 6 -5 1 -5 -13z"/>
<path d="M12371 6144 c0 -11 3 -14 6 -6 3 7 2 16 -1 19 -3 4 -6 -2 -5 -13z"/>
<path d="M4893 5245 c-3 -9 -3 -18 -1 -21 3 -3 8 4 11 16 6 23 -1 27 -10 5z"/>
<path d="M4837 5091 c-4 -17 -3 -21 5 -13 5 5 8 16 6 23 -3 8 -7 3 -11 -10z"/>
<path d="M4821 5024 c0 -11 3 -14 6 -6 3 7 2 16 -1 19 -3 4 -6 -2 -5 -13z"/>
<path d="M11589 4603 c-13 -16 -12 -17 4 -4 9 7 17 15 17 17 0 8 -8 3 -21 -13z"/>
<path d="M11485 4505 c-44 -41 -75 -75 -70 -75 6 0 44 34 85 75 41 41 73 75
70 74 -3 0 -41 -33 -85 -74z"/>
<path d="M11330 4364 c-77 -65 -112 -100 -55 -56 51 40 131 111 125 111 -3 0
-34 -25 -70 -55z"/>
<path d="M11180 4240 c-183 -154 -765 -577 -940 -684 -25 -15 -74 -45 -109
-67 -35 -22 -89 -53 -120 -70 -31 -17 -60 -34 -66 -39 -15 -12 -257 -150 -355
-202 -185 -99 -384 -199 -560 -283 -201 -95 -226 -106 -405 -185 -66 -29 -203
-90 -305 -136 -102 -45 -207 -91 -234 -103 -27 -12 -47 -24 -44 -26 3 -3 34 8
69 24 35 16 100 43 144 61 44 18 133 54 198 82 65 27 159 65 210 84 51 19 101
39 112 44 11 6 52 21 92 34 40 14 123 51 185 83 110 58 176 83 248 98 47 10
87 31 131 69 77 67 97 81 125 95 16 7 40 19 54 26 14 7 39 10 57 8 27 -3 36 2
73 46 40 47 116 102 290 208 41 25 107 67 146 92 40 25 119 75 177 110 97 59
336 225 347 241 3 4 43 34 90 67 47 34 118 87 156 119 105 87 246 201 269 218
11 8 18 17 15 19 -3 3 -25 -12 -50 -33z"/>
<path d="M4451 3693 c-1 -6 -4 -20 -7 -30 -5 -17 -5 -17 6 0 6 10 9 23 6 30
-3 9 -5 9 -5 0z"/>
<path d="M6956 2784 c-5 -14 -4 -15 9 -4 17 14 19 20 6 20 -5 0 -12 -7 -15
-16z"/>
<path d="M8015 2470 c-3 -5 -2 -10 4 -10 5 0 13 5 16 10 3 6 2 10 -4 10 -5 0
-13 -4 -16 -10z"/>
<path d="M7970 2420 c-19 -11 -30 -19 -24 -20 12 0 74 29 74 36 0 8 -15 3 -50
-16z"/>
<path d="M7898 2383 c7 -3 16 -2 19 1 4 3 -2 6 -13 5 -11 0 -14 -3 -6 -6z"/>
<path d="M5614 693 c25 -50 49 -108 47 -116 0 -4 6 -10 15 -14 9 -3 22 -20 29
-37 11 -25 15 -28 20 -14 5 11 -14 49 -55 112 -61 95 -84 122 -56 69z"/>
</g>
</svg>
